<mxfile host="Electron" agent="Mozilla/5.0 (Windows NT 10.0; Win64; x64) AppleWebKit/537.36 (KHTML, like Gecko) draw.io/26.0.9 Chrome/128.0.6613.186 Electron/32.2.5 Safari/537.36" version="26.0.9" pages="2">
  <diagram name="Architecture" id="ZfYDeruZUsD-qKXpn_qo">
    <mxGraphModel dx="584" dy="837" grid="1" gridSize="10" guides="1" tooltips="1" connect="1" arrows="1" fold="1" page="1" pageScale="1" pageWidth="850" pageHeight="1100" math="1" shadow="0">
      <root>
        <mxCell id="0" />
        <mxCell id="1" parent="0" />
        <mxCell id="LosKKZpC7nMmyaD282La-29" value="" style="rounded=1;whiteSpace=wrap;html=1;strokeColor=default;strokeWidth=3;align=center;verticalAlign=middle;fontFamily=Helvetica;fontSize=12;fontColor=default;fillColor=#dce3e9;opacity=30;direction=east;" parent="1" vertex="1">
          <mxGeometry x="2190" y="100" width="550" height="230" as="geometry" />
        </mxCell>
        <mxCell id="zhG1U59wsn1K44dkHao6-14" value="" style="rounded=1;whiteSpace=wrap;html=1;strokeColor=default;strokeWidth=3;align=center;verticalAlign=middle;fontFamily=Helvetica;fontSize=12;fontColor=default;fillColor=#dce3e9;opacity=30;direction=east;" parent="1" vertex="1">
          <mxGeometry x="1800" y="100" width="160" height="220" as="geometry" />
        </mxCell>
        <mxCell id="zhG1U59wsn1K44dkHao6-19" value="" style="rounded=1;whiteSpace=wrap;html=1;strokeWidth=3;fillColor=#fee0e1;direction=east;" parent="1" vertex="1">
          <mxGeometry x="1835" y="110" width="110" height="40" as="geometry" />
        </mxCell>
        <mxCell id="zhG1U59wsn1K44dkHao6-20" value="" style="rounded=1;whiteSpace=wrap;html=1;strokeWidth=3;fillColor=#fee0e1;direction=east;" parent="1" vertex="1">
          <mxGeometry x="1835" y="180" width="110" height="40" as="geometry" />
        </mxCell>
        <mxCell id="zhG1U59wsn1K44dkHao6-21" value="" style="rounded=1;whiteSpace=wrap;html=1;strokeWidth=3;fillColor=#fee0e1;direction=east;" parent="1" vertex="1">
          <mxGeometry x="1835" y="250" width="110" height="40" as="geometry" />
        </mxCell>
        <mxCell id="zhG1U59wsn1K44dkHao6-16" value="" style="rounded=1;whiteSpace=wrap;html=1;strokeWidth=3;fillColor=#fee0e1;direction=east;" parent="1" vertex="1">
          <mxGeometry x="1825" y="120" width="110" height="40" as="geometry" />
        </mxCell>
        <mxCell id="zhG1U59wsn1K44dkHao6-17" value="" style="rounded=1;whiteSpace=wrap;html=1;strokeWidth=3;fillColor=#fee0e1;direction=east;" parent="1" vertex="1">
          <mxGeometry x="1825" y="190" width="110" height="40" as="geometry" />
        </mxCell>
        <mxCell id="zhG1U59wsn1K44dkHao6-18" value="" style="rounded=1;whiteSpace=wrap;html=1;strokeWidth=3;fillColor=#fee0e1;direction=east;" parent="1" vertex="1">
          <mxGeometry x="1825" y="260" width="110" height="40" as="geometry" />
        </mxCell>
        <mxCell id="zhG1U59wsn1K44dkHao6-11" value="&lt;font size=&quot;3&quot;&gt;&lt;b&gt;Coordinates&lt;/b&gt;&lt;/font&gt;" style="rounded=1;whiteSpace=wrap;html=1;strokeWidth=3;fillColor=#fee0e1;direction=east;" parent="1" vertex="1">
          <mxGeometry x="1815" y="130" width="110" height="40" as="geometry" />
        </mxCell>
        <mxCell id="zhG1U59wsn1K44dkHao6-12" value="&lt;font size=&quot;3&quot;&gt;&lt;b&gt;Velocities&lt;/b&gt;&lt;/font&gt;" style="rounded=1;whiteSpace=wrap;html=1;strokeWidth=3;fillColor=#fee0e1;direction=east;" parent="1" vertex="1">
          <mxGeometry x="1815" y="200" width="110" height="40" as="geometry" />
        </mxCell>
        <mxCell id="zhG1U59wsn1K44dkHao6-13" value="&lt;font size=&quot;3&quot;&gt;&lt;b&gt;Phase Space&lt;/b&gt;&lt;/font&gt;" style="rounded=1;whiteSpace=wrap;html=1;strokeWidth=3;fillColor=#fee0e1;direction=east;" parent="1" vertex="1">
          <mxGeometry x="1815" y="270" width="110" height="40" as="geometry" />
        </mxCell>
        <mxCell id="zhG1U59wsn1K44dkHao6-22" value="&lt;font face=&quot;Times New Roman&quot;&gt;&lt;b&gt;Batch&lt;/b&gt;&lt;/font&gt;" style="text;html=1;align=center;verticalAlign=middle;resizable=0;points=[];autosize=1;strokeColor=none;fillColor=none;strokeWidth=1;fontSize=14;" parent="1" vertex="1">
          <mxGeometry x="1850" y="70" width="60" height="30" as="geometry" />
        </mxCell>
        <mxCell id="LosKKZpC7nMmyaD282La-9" style="edgeStyle=orthogonalEdgeStyle;rounded=0;orthogonalLoop=1;jettySize=auto;html=1;strokeWidth=1.5;" parent="1" source="zhG1U59wsn1K44dkHao6-24" target="LosKKZpC7nMmyaD282La-8" edge="1">
          <mxGeometry relative="1" as="geometry">
            <Array as="points">
              <mxPoint x="2100" y="290" />
              <mxPoint x="2100" y="220" />
            </Array>
          </mxGeometry>
        </mxCell>
        <mxCell id="LosKKZpC7nMmyaD282La-13" style="edgeStyle=orthogonalEdgeStyle;rounded=0;orthogonalLoop=1;jettySize=auto;html=1;entryX=0.5;entryY=1;entryDx=0;entryDy=0;strokeWidth=1.5;" parent="1" source="zhG1U59wsn1K44dkHao6-24" target="LosKKZpC7nMmyaD282La-17" edge="1">
          <mxGeometry relative="1" as="geometry">
            <mxPoint x="2280" y="310" as="targetPoint" />
            <Array as="points">
              <mxPoint x="2035" y="340" />
              <mxPoint x="2250" y="340" />
            </Array>
          </mxGeometry>
        </mxCell>
        <mxCell id="zhG1U59wsn1K44dkHao6-24" value="&lt;font size=&quot;3&quot;&gt;&lt;b&gt;Equivariant Lifting&lt;/b&gt;&lt;/font&gt;" style="rounded=1;whiteSpace=wrap;html=1;strokeWidth=3;fillColor=#d5e8d4;direction=east;strokeColor=#000000;" parent="1" vertex="1">
          <mxGeometry x="1980" y="270" width="110" height="40" as="geometry" />
        </mxCell>
        <mxCell id="LosKKZpC7nMmyaD282La-10" style="edgeStyle=orthogonalEdgeStyle;rounded=0;orthogonalLoop=1;jettySize=auto;html=1;strokeWidth=1.5;" parent="1" source="zhG1U59wsn1K44dkHao6-25" target="LosKKZpC7nMmyaD282La-8" edge="1">
          <mxGeometry relative="1" as="geometry" />
        </mxCell>
        <mxCell id="zhG1U59wsn1K44dkHao6-25" value="&lt;font size=&quot;3&quot;&gt;&lt;b&gt;Equivariant Lifting&lt;/b&gt;&lt;/font&gt;" style="rounded=1;whiteSpace=wrap;html=1;strokeWidth=3;fillColor=#d5e8d4;direction=east;strokeColor=#000000;" parent="1" vertex="1">
          <mxGeometry x="1980" y="200" width="110" height="40" as="geometry" />
        </mxCell>
        <mxCell id="LosKKZpC7nMmyaD282La-11" style="edgeStyle=orthogonalEdgeStyle;rounded=0;orthogonalLoop=1;jettySize=auto;html=1;strokeWidth=1.5;" parent="1" source="zhG1U59wsn1K44dkHao6-26" target="LosKKZpC7nMmyaD282La-8" edge="1">
          <mxGeometry relative="1" as="geometry">
            <Array as="points">
              <mxPoint x="2100" y="150" />
              <mxPoint x="2100" y="220" />
            </Array>
          </mxGeometry>
        </mxCell>
        <mxCell id="zhG1U59wsn1K44dkHao6-26" value="&lt;font size=&quot;3&quot;&gt;&lt;b&gt;Equivariant Lifting&lt;/b&gt;&lt;/font&gt;" style="rounded=1;whiteSpace=wrap;html=1;strokeWidth=3;fillColor=#d5e8d4;direction=east;strokeColor=#000000;" parent="1" vertex="1">
          <mxGeometry x="1980" y="130" width="110" height="40" as="geometry" />
        </mxCell>
        <mxCell id="zhG1U59wsn1K44dkHao6-27" value="&lt;div&gt;&lt;font face=&quot;Times New Roman&quot;&gt;Duplicate first frame for \(T\) timesteps:&lt;/font&gt;&lt;/div&gt;&lt;div&gt;&lt;span style=&quot;font-family: &amp;quot;Times New Roman&amp;quot;; background-color: transparent; color: light-dark(rgb(0, 0, 0), rgb(255, 255, 255));&quot;&gt;&amp;nbsp;&lt;/span&gt;&lt;span style=&quot;font-family: &amp;quot;Times New Roman&amp;quot;; background-color: transparent; color: light-dark(rgb(0, 0, 0), rgb(255, 255, 255));&quot;&gt;\( \mathcal{G}^{(t)}\in \mathbb{R}^{N, H_i} \to \{\mathcal{G^{(t)}}\} \in \mathbb{R}^{P,N,H_i} \)&lt;/span&gt;&lt;/div&gt;" style="text;html=1;align=center;verticalAlign=middle;resizable=0;points=[];autosize=1;strokeColor=none;fillColor=none;strokeWidth=1;fontSize=14;" parent="1" vertex="1">
          <mxGeometry x="1580" y="320" width="600" height="50" as="geometry" />
        </mxCell>
        <mxCell id="LosKKZpC7nMmyaD282La-2" value="" style="endArrow=classic;html=1;rounded=0;exitX=1;exitY=0.5;exitDx=0;exitDy=0;strokeWidth=1.5;" parent="1" source="zhG1U59wsn1K44dkHao6-13" target="zhG1U59wsn1K44dkHao6-24" edge="1">
          <mxGeometry width="50" height="50" relative="1" as="geometry">
            <mxPoint x="2130" y="290" as="sourcePoint" />
            <mxPoint x="2180" y="240" as="targetPoint" />
          </mxGeometry>
        </mxCell>
        <mxCell id="LosKKZpC7nMmyaD282La-5" value="" style="endArrow=classic;html=1;rounded=0;exitX=1;exitY=0.5;exitDx=0;exitDy=0;strokeWidth=1.5;entryX=0;entryY=0.5;entryDx=0;entryDy=0;" parent="1" source="zhG1U59wsn1K44dkHao6-12" target="zhG1U59wsn1K44dkHao6-25" edge="1">
          <mxGeometry width="50" height="50" relative="1" as="geometry">
            <mxPoint x="1920" y="300" as="sourcePoint" />
            <mxPoint x="2010" y="300" as="targetPoint" />
          </mxGeometry>
        </mxCell>
        <mxCell id="LosKKZpC7nMmyaD282La-6" value="" style="endArrow=classic;html=1;rounded=0;exitX=1;exitY=0.5;exitDx=0;exitDy=0;strokeWidth=1.5;entryX=0;entryY=0.5;entryDx=0;entryDy=0;" parent="1" source="zhG1U59wsn1K44dkHao6-11" target="zhG1U59wsn1K44dkHao6-26" edge="1">
          <mxGeometry width="50" height="50" relative="1" as="geometry">
            <mxPoint x="1920" y="300" as="sourcePoint" />
            <mxPoint x="2010" y="300" as="targetPoint" />
          </mxGeometry>
        </mxCell>
        <mxCell id="LosKKZpC7nMmyaD282La-7" value="&lt;div&gt;&lt;div&gt;&lt;font face=&quot;Times New Roman&quot;&gt;Unify embedding dimension:&lt;/font&gt;&lt;/div&gt;&lt;div&gt;&lt;span style=&quot;font-family: &amp;quot;Times New Roman&amp;quot;; background-color: transparent; color: light-dark(rgb(0, 0, 0), rgb(255, 255, 255));&quot;&gt;&amp;nbsp;&lt;/span&gt;&lt;span style=&quot;font-family: &amp;quot;Times New Roman&amp;quot;; background-color: transparent; color: light-dark(rgb(0, 0, 0), rgb(255, 255, 255));&quot;&gt;\( \{\mathcal{G^{(t)}}\} \in \mathbb{R}^{P,N,H_i} \to \{\mathcal{G^{(t)}}\} \in \mathbb{R}^{P,N,d} \)&lt;/span&gt;&lt;/div&gt;&lt;/div&gt;" style="text;html=1;align=center;verticalAlign=middle;resizable=0;points=[];autosize=1;strokeColor=none;fillColor=none;strokeWidth=1;fontSize=14;" parent="1" vertex="1">
          <mxGeometry x="1725" y="360" width="620" height="50" as="geometry" />
        </mxCell>
        <mxCell id="LosKKZpC7nMmyaD282La-32" style="edgeStyle=orthogonalEdgeStyle;rounded=0;orthogonalLoop=1;jettySize=auto;html=1;strokeWidth=1.5;" parent="1" source="LosKKZpC7nMmyaD282La-8" target="LosKKZpC7nMmyaD282La-25" edge="1">
          <mxGeometry relative="1" as="geometry">
            <Array as="points">
              <mxPoint x="2230" y="220" />
              <mxPoint x="2230" y="220" />
            </Array>
          </mxGeometry>
        </mxCell>
        <mxCell id="LosKKZpC7nMmyaD282La-41" style="edgeStyle=orthogonalEdgeStyle;rounded=0;orthogonalLoop=1;jettySize=auto;html=1;strokeWidth=1.5;exitX=0.996;exitY=0.114;exitDx=0;exitDy=0;exitPerimeter=0;" parent="1" source="LosKKZpC7nMmyaD282La-8" target="LosKKZpC7nMmyaD282La-24" edge="1">
          <mxGeometry relative="1" as="geometry">
            <Array as="points">
              <mxPoint x="2180" y="150" />
              <mxPoint x="2180" y="150" />
            </Array>
          </mxGeometry>
        </mxCell>
        <mxCell id="LosKKZpC7nMmyaD282La-8" value="&lt;font size=&quot;3&quot;&gt;&lt;b&gt;RMS Norm&lt;/b&gt;&lt;/font&gt;" style="rounded=1;whiteSpace=wrap;html=1;strokeWidth=3;fillColor=#dae8fc;direction=east;strokeColor=#000000;" parent="1" vertex="1">
          <mxGeometry x="2120" y="130" width="50" height="180" as="geometry" />
        </mxCell>
        <mxCell id="LosKKZpC7nMmyaD282La-15" value="" style="rounded=1;whiteSpace=wrap;html=1;strokeWidth=3;fillColor=#bac8d3;perimeterSpacing=0;opacity=50;direction=east;" parent="1" vertex="1">
          <mxGeometry x="2230" y="250" width="80" height="40" as="geometry" />
        </mxCell>
        <mxCell id="LosKKZpC7nMmyaD282La-16" value="" style="rounded=1;whiteSpace=wrap;html=1;strokeWidth=3;fillColor=#bac8d3;perimeterSpacing=0;opacity=50;direction=east;" parent="1" vertex="1">
          <mxGeometry x="2220" y="260" width="80" height="40" as="geometry" />
        </mxCell>
        <mxCell id="LosKKZpC7nMmyaD282La-17" value="&lt;font size=&quot;3&quot;&gt;&lt;b&gt;Linear&lt;sub&gt;Q&lt;/sub&gt;&lt;/b&gt;&lt;/font&gt;" style="rounded=1;whiteSpace=wrap;html=1;strokeWidth=3;fillColor=#bac8d3;direction=east;" parent="1" vertex="1">
          <mxGeometry x="2210" y="270" width="80" height="40" as="geometry" />
        </mxCell>
        <mxCell id="LosKKZpC7nMmyaD282La-18" value="&lt;font size=&quot;3&quot;&gt;&lt;b&gt;Temporal RoPE&lt;/b&gt;&lt;/font&gt;" style="rounded=1;whiteSpace=wrap;html=1;strokeWidth=3;fillColor=#f0a30a;direction=east;fontColor=#000000;strokeColor=#000000;" parent="1" vertex="1">
          <mxGeometry x="2330" y="200" width="80" height="40" as="geometry" />
        </mxCell>
        <mxCell id="LosKKZpC7nMmyaD282La-20" value="" style="rounded=1;whiteSpace=wrap;html=1;strokeWidth=3;fillColor=#bac8d3;perimeterSpacing=0;opacity=50;direction=east;" parent="1" vertex="1">
          <mxGeometry x="2230" y="110" width="80" height="40" as="geometry" />
        </mxCell>
        <mxCell id="LosKKZpC7nMmyaD282La-21" value="" style="rounded=1;whiteSpace=wrap;html=1;strokeWidth=3;fillColor=#bac8d3;perimeterSpacing=0;opacity=50;direction=east;" parent="1" vertex="1">
          <mxGeometry x="2230" y="180" width="80" height="40" as="geometry" />
        </mxCell>
        <mxCell id="LosKKZpC7nMmyaD282La-22" value="" style="rounded=1;whiteSpace=wrap;html=1;strokeWidth=3;fillColor=#bac8d3;perimeterSpacing=0;opacity=50;direction=east;" parent="1" vertex="1">
          <mxGeometry x="2220" y="190" width="80" height="40" as="geometry" />
        </mxCell>
        <mxCell id="LosKKZpC7nMmyaD282La-23" value="" style="rounded=1;whiteSpace=wrap;html=1;strokeWidth=3;fillColor=#bac8d3;perimeterSpacing=0;opacity=50;direction=east;" parent="1" vertex="1">
          <mxGeometry x="2220" y="120" width="80" height="40" as="geometry" />
        </mxCell>
        <mxCell id="LosKKZpC7nMmyaD282La-24" value="&lt;font size=&quot;3&quot;&gt;&lt;b&gt;Linear&lt;sub&gt;V&lt;/sub&gt;&lt;/b&gt;&lt;/font&gt;" style="rounded=1;whiteSpace=wrap;html=1;strokeWidth=3;fillColor=#bac8d3;direction=east;" parent="1" vertex="1">
          <mxGeometry x="2210" y="130" width="80" height="40" as="geometry" />
        </mxCell>
        <mxCell id="LosKKZpC7nMmyaD282La-25" value="&lt;b style=&quot;&quot;&gt;&lt;font size=&quot;3&quot;&gt;Linear&lt;/font&gt;&lt;span style=&quot;font-size: 13.3333px;&quot;&gt;&lt;sub&gt;K&lt;/sub&gt;&lt;/span&gt;&lt;/b&gt;" style="rounded=1;whiteSpace=wrap;html=1;strokeWidth=3;fillColor=#bac8d3;direction=east;" parent="1" vertex="1">
          <mxGeometry x="2210" y="200" width="80" height="40" as="geometry" />
        </mxCell>
        <mxCell id="LosKKZpC7nMmyaD282La-26" style="edgeStyle=orthogonalEdgeStyle;rounded=0;orthogonalLoop=1;jettySize=auto;html=1;entryX=0;entryY=0.5;entryDx=0;entryDy=0;strokeWidth=1.5;exitX=1;exitY=0.5;exitDx=0;exitDy=0;" parent="1" source="LosKKZpC7nMmyaD282La-25" target="LosKKZpC7nMmyaD282La-18" edge="1">
          <mxGeometry relative="1" as="geometry">
            <mxPoint x="2260" y="320" as="targetPoint" />
            <mxPoint x="2025" y="320" as="sourcePoint" />
            <Array as="points">
              <mxPoint x="2330" y="220" />
              <mxPoint x="2330" y="220" />
            </Array>
          </mxGeometry>
        </mxCell>
        <mxCell id="LosKKZpC7nMmyaD282La-27" value="&lt;font size=&quot;3&quot;&gt;&lt;b&gt;Temporal RoPE&lt;/b&gt;&lt;/font&gt;" style="rounded=1;whiteSpace=wrap;html=1;strokeWidth=3;fillColor=#f0a30a;direction=east;fontColor=#000000;strokeColor=#000000;" parent="1" vertex="1">
          <mxGeometry x="2330" y="270" width="80" height="40" as="geometry" />
        </mxCell>
        <mxCell id="LosKKZpC7nMmyaD282La-28" style="edgeStyle=orthogonalEdgeStyle;rounded=0;orthogonalLoop=1;jettySize=auto;html=1;entryX=0;entryY=0.5;entryDx=0;entryDy=0;strokeWidth=1.5;exitX=1;exitY=0.5;exitDx=0;exitDy=0;" parent="1" source="LosKKZpC7nMmyaD282La-17" target="LosKKZpC7nMmyaD282La-27" edge="1">
          <mxGeometry relative="1" as="geometry">
            <mxPoint x="2350" y="160" as="targetPoint" />
            <mxPoint x="2300" y="160" as="sourcePoint" />
            <Array as="points">
              <mxPoint x="2330" y="290" />
              <mxPoint x="2330" y="290" />
            </Array>
          </mxGeometry>
        </mxCell>
        <mxCell id="LosKKZpC7nMmyaD282La-30" value="&lt;font face=&quot;Times New Roman&quot;&gt;&lt;b&gt;MODEL_NAME Block&lt;/b&gt;&lt;/font&gt;" style="text;html=1;align=center;verticalAlign=middle;resizable=0;points=[];autosize=1;strokeColor=none;fillColor=none;strokeWidth=1;fontSize=14;" parent="1" vertex="1">
          <mxGeometry x="2380" y="70" width="160" height="30" as="geometry" />
        </mxCell>
        <mxCell id="LosKKZpC7nMmyaD282La-58" style="edgeStyle=orthogonalEdgeStyle;rounded=0;orthogonalLoop=1;jettySize=auto;html=1;entryX=0;entryY=0.5;entryDx=0;entryDy=0;strokeWidth=1.5;" parent="1" source="LosKKZpC7nMmyaD282La-33" target="LosKKZpC7nMmyaD282La-36" edge="1">
          <mxGeometry relative="1" as="geometry" />
        </mxCell>
        <mxCell id="LosKKZpC7nMmyaD282La-33" value="&lt;font size=&quot;3&quot;&gt;&lt;b&gt;QK&lt;sup&gt;T&lt;/sup&gt;&lt;/b&gt;&lt;/font&gt;&lt;div&gt;&lt;font size=&quot;3&quot;&gt;&lt;b&gt;&lt;sup&gt;MM&lt;/sup&gt;&lt;/b&gt;&lt;/font&gt;&lt;/div&gt;" style="rounded=1;whiteSpace=wrap;html=1;strokeWidth=3;fillColor=#dae8fc;direction=east;" parent="1" vertex="1">
          <mxGeometry x="2430" y="200" width="40" height="110" as="geometry" />
        </mxCell>
        <mxCell id="LosKKZpC7nMmyaD282La-36" value="&lt;font size=&quot;3&quot;&gt;&lt;b&gt;Soft&lt;/b&gt;&lt;/font&gt;&lt;div&gt;&lt;font size=&quot;3&quot;&gt;&lt;b&gt;max&lt;/b&gt;&lt;/font&gt;&lt;/div&gt;" style="rounded=1;whiteSpace=wrap;html=1;strokeWidth=3;fillColor=light-dark(#CAB0D7,#614C6C);direction=east;" parent="1" vertex="1">
          <mxGeometry x="2490" y="200" width="40" height="110" as="geometry" />
        </mxCell>
        <mxCell id="LosKKZpC7nMmyaD282La-63" style="edgeStyle=orthogonalEdgeStyle;rounded=0;orthogonalLoop=1;jettySize=auto;html=1;entryX=0;entryY=0.5;entryDx=0;entryDy=0;strokeWidth=1.5;" parent="1" source="LosKKZpC7nMmyaD282La-40" target="LosKKZpC7nMmyaD282La-61" edge="1">
          <mxGeometry relative="1" as="geometry" />
        </mxCell>
        <mxCell id="LosKKZpC7nMmyaD282La-40" value="&lt;b style=&quot;&quot;&gt;&lt;font size=&quot;3&quot;&gt;QKV&lt;/font&gt;&lt;/b&gt;&lt;div&gt;&lt;b style=&quot;&quot;&gt;&lt;font size=&quot;3&quot;&gt;MM&lt;/font&gt;&lt;/b&gt;&lt;/div&gt;" style="rounded=1;whiteSpace=wrap;html=1;strokeWidth=3;fillColor=#dae8fc;direction=east;" parent="1" vertex="1">
          <mxGeometry x="2550" y="130" width="40" height="180" as="geometry" />
        </mxCell>
        <mxCell id="LosKKZpC7nMmyaD282La-53" style="edgeStyle=orthogonalEdgeStyle;rounded=0;orthogonalLoop=1;jettySize=auto;html=1;strokeWidth=1.5;" parent="1" source="LosKKZpC7nMmyaD282La-18" edge="1">
          <mxGeometry relative="1" as="geometry">
            <mxPoint x="2430" y="220" as="targetPoint" />
          </mxGeometry>
        </mxCell>
        <mxCell id="LosKKZpC7nMmyaD282La-55" style="edgeStyle=orthogonalEdgeStyle;rounded=0;orthogonalLoop=1;jettySize=auto;html=1;entryX=-0.012;entryY=0.11;entryDx=0;entryDy=0;strokeWidth=1.5;exitX=1;exitY=0.5;exitDx=0;exitDy=0;entryPerimeter=0;" parent="1" source="LosKKZpC7nMmyaD282La-24" target="LosKKZpC7nMmyaD282La-40" edge="1">
          <mxGeometry relative="1" as="geometry">
            <mxPoint x="2370" y="149.72" as="targetPoint" />
            <mxPoint x="2320" y="149.72" as="sourcePoint" />
            <Array as="points">
              <mxPoint x="2360" y="150" />
            </Array>
          </mxGeometry>
        </mxCell>
        <mxCell id="LosKKZpC7nMmyaD282La-56" style="edgeStyle=orthogonalEdgeStyle;rounded=0;orthogonalLoop=1;jettySize=auto;html=1;strokeWidth=1.5;exitX=1;exitY=0.5;exitDx=0;exitDy=0;entryX=-0.004;entryY=0.694;entryDx=0;entryDy=0;entryPerimeter=0;" parent="1" source="LosKKZpC7nMmyaD282La-36" target="LosKKZpC7nMmyaD282La-40" edge="1">
          <mxGeometry relative="1" as="geometry">
            <mxPoint x="2600" y="254.86" as="sourcePoint" />
            <mxPoint x="2620" y="255" as="targetPoint" />
          </mxGeometry>
        </mxCell>
        <mxCell id="LosKKZpC7nMmyaD282La-57" style="edgeStyle=orthogonalEdgeStyle;rounded=0;orthogonalLoop=1;jettySize=auto;html=1;strokeWidth=1.5;exitX=1;exitY=0.5;exitDx=0;exitDy=0;" parent="1" source="LosKKZpC7nMmyaD282La-27" edge="1">
          <mxGeometry relative="1" as="geometry">
            <mxPoint x="2430" y="290" as="sourcePoint" />
            <mxPoint x="2430" y="290" as="targetPoint" />
          </mxGeometry>
        </mxCell>
        <mxCell id="LosKKZpC7nMmyaD282La-94" style="edgeStyle=orthogonalEdgeStyle;rounded=0;orthogonalLoop=1;jettySize=auto;html=1;strokeWidth=1.5;" parent="1" source="LosKKZpC7nMmyaD282La-61" target="LosKKZpC7nMmyaD282La-93" edge="1">
          <mxGeometry relative="1" as="geometry" />
        </mxCell>
        <mxCell id="LosKKZpC7nMmyaD282La-61" value="&lt;font size=&quot;3&quot;&gt;&lt;b&gt;Gated&lt;/b&gt;&lt;/font&gt;&lt;div&gt;&lt;font size=&quot;3&quot;&gt;&lt;b&gt;Accm&lt;/b&gt;&lt;/font&gt;&lt;/div&gt;" style="rounded=1;whiteSpace=wrap;html=1;strokeWidth=3;fillColor=#D5E8D4;direction=east;" parent="1" vertex="1">
          <mxGeometry x="2610" y="130" width="50" height="180" as="geometry" />
        </mxCell>
        <mxCell id="LosKKZpC7nMmyaD282La-65" value="&lt;font size=&quot;3&quot;&gt;&lt;b&gt;Spherical Harmonic Bias&lt;/b&gt;&lt;/font&gt;" style="rounded=1;whiteSpace=wrap;html=1;strokeWidth=3;fillColor=#f0a30a;direction=east;fontColor=#000000;strokeColor=#000000;" parent="1" vertex="1">
          <mxGeometry x="2385" y="340" width="130" height="40" as="geometry" />
        </mxCell>
        <mxCell id="LosKKZpC7nMmyaD282La-67" value="&lt;font style=&quot;font-size: 16px;&quot;&gt;\(\mathbf{+}\)&lt;/font&gt;" style="text;html=1;align=center;verticalAlign=middle;resizable=0;points=[];autosize=1;strokeColor=none;fillColor=none;" parent="1" vertex="1">
          <mxGeometry x="2390" y="310" width="120" height="30" as="geometry" />
        </mxCell>
        <mxCell id="LosKKZpC7nMmyaD282La-104" style="edgeStyle=orthogonalEdgeStyle;rounded=0;orthogonalLoop=1;jettySize=auto;html=1;strokeWidth=1.5;" parent="1" source="LosKKZpC7nMmyaD282La-69" target="LosKKZpC7nMmyaD282La-103" edge="1">
          <mxGeometry relative="1" as="geometry" />
        </mxCell>
        <mxCell id="LosKKZpC7nMmyaD282La-69" value="&lt;font size=&quot;3&quot;&gt;&lt;b&gt;FFN&lt;/b&gt;&lt;/font&gt;" style="rounded=1;whiteSpace=wrap;html=1;strokeWidth=3;fillColor=#dae8fc;direction=east;" parent="1" vertex="1">
          <mxGeometry x="2760" y="130" width="40" height="180" as="geometry" />
        </mxCell>
        <mxCell id="zhG1U59wsn1K44dkHao6-10" value="&lt;span style=&quot;font-size: 14px;&quot;&gt;&lt;b&gt;Feed Forward Network&lt;/b&gt;&lt;/span&gt;" style="text;html=1;align=center;verticalAlign=middle;resizable=0;points=[];autosize=1;strokeColor=none;fillColor=none;container=0;rotation=0;fontFamily=Times New Roman;" parent="1" vertex="1">
          <mxGeometry x="2700" y="490" width="160" height="30" as="geometry" />
        </mxCell>
        <mxCell id="zhG1U59wsn1K44dkHao6-2" value="" style="rounded=0;whiteSpace=wrap;html=1;dashed=1;strokeWidth=2;direction=east;rotation=90;fillColor=none;container=0;" parent="1" vertex="1">
          <mxGeometry x="2710" y="300" width="140" height="240" as="geometry" />
        </mxCell>
        <mxCell id="LosKKZpC7nMmyaD282La-76" value="" style="endArrow=none;dashed=1;html=1;strokeWidth=2;rounded=0;entryX=0;entryY=1;entryDx=0;entryDy=0;exitX=0;exitY=1;exitDx=0;exitDy=0;" parent="1" source="LosKKZpC7nMmyaD282La-69" target="zhG1U59wsn1K44dkHao6-2" edge="1">
          <mxGeometry width="50" height="50" relative="1" as="geometry">
            <mxPoint x="2520" y="60" as="sourcePoint" />
            <mxPoint x="2590" y="90" as="targetPoint" />
          </mxGeometry>
        </mxCell>
        <mxCell id="LosKKZpC7nMmyaD282La-77" value="" style="endArrow=none;dashed=1;html=1;strokeWidth=2;rounded=0;entryX=0;entryY=0;entryDx=0;entryDy=0;exitX=1;exitY=1;exitDx=0;exitDy=0;" parent="1" source="LosKKZpC7nMmyaD282La-69" target="zhG1U59wsn1K44dkHao6-2" edge="1">
          <mxGeometry width="50" height="50" relative="1" as="geometry">
            <mxPoint x="2870" y="132" as="sourcePoint" />
            <mxPoint x="2830" y="90" as="targetPoint" />
          </mxGeometry>
        </mxCell>
        <mxCell id="LosKKZpC7nMmyaD282La-82" style="edgeStyle=orthogonalEdgeStyle;rounded=0;orthogonalLoop=1;jettySize=auto;html=1;strokeWidth=1.5;" parent="1" source="LosKKZpC7nMmyaD282La-80" target="LosKKZpC7nMmyaD282La-81" edge="1">
          <mxGeometry relative="1" as="geometry" />
        </mxCell>
        <mxCell id="LosKKZpC7nMmyaD282La-80" value="&lt;font size=&quot;3&quot;&gt;&lt;b&gt;FFN&lt;/b&gt;&lt;/font&gt;" style="rounded=1;whiteSpace=wrap;html=1;strokeWidth=3;fillColor=#D5E8D4;direction=east;textDirection=vertical-lr;" parent="1" vertex="1">
          <mxGeometry x="2670" y="360" width="40" height="120" as="geometry" />
        </mxCell>
        <mxCell id="LosKKZpC7nMmyaD282La-87" style="edgeStyle=orthogonalEdgeStyle;rounded=0;orthogonalLoop=1;jettySize=auto;html=1;entryX=0;entryY=0.5;entryDx=0;entryDy=0;strokeWidth=1.5;" parent="1" source="LosKKZpC7nMmyaD282La-81" target="LosKKZpC7nMmyaD282La-83" edge="1">
          <mxGeometry relative="1" as="geometry" />
        </mxCell>
        <mxCell id="LosKKZpC7nMmyaD282La-81" value="&lt;font size=&quot;3&quot;&gt;&lt;b&gt;SILU&lt;/b&gt;&lt;/font&gt;" style="rounded=1;whiteSpace=wrap;html=1;strokeWidth=3;fillColor=#E1D5E7;direction=east;textDirection=vertical-lr;" parent="1" vertex="1">
          <mxGeometry x="2730" y="370" width="40" height="100" as="geometry" />
        </mxCell>
        <mxCell id="LosKKZpC7nMmyaD282La-85" value="" style="edgeStyle=orthogonalEdgeStyle;rounded=0;orthogonalLoop=1;jettySize=auto;html=1;strokeWidth=1.5;" parent="1" source="LosKKZpC7nMmyaD282La-83" target="LosKKZpC7nMmyaD282La-84" edge="1">
          <mxGeometry relative="1" as="geometry" />
        </mxCell>
        <mxCell id="LosKKZpC7nMmyaD282La-83" value="&lt;font size=&quot;3&quot;&gt;&lt;b&gt;Dropout&lt;/b&gt;&lt;/font&gt;" style="rounded=1;whiteSpace=wrap;html=1;strokeWidth=3;fillColor=#F8CECC;direction=east;textDirection=vertical-lr;" parent="1" vertex="1">
          <mxGeometry x="2790" y="360" width="40" height="120" as="geometry" />
        </mxCell>
        <mxCell id="LosKKZpC7nMmyaD282La-84" value="&lt;font size=&quot;3&quot;&gt;&lt;b&gt;FFN&lt;/b&gt;&lt;/font&gt;" style="rounded=1;whiteSpace=wrap;html=1;strokeWidth=3;fillColor=#D5E8D4;direction=east;textDirection=vertical-lr;" parent="1" vertex="1">
          <mxGeometry x="2850" y="360" width="40" height="120" as="geometry" />
        </mxCell>
        <mxCell id="LosKKZpC7nMmyaD282La-91" value="&lt;div&gt;&lt;font face=&quot;Times New Roman&quot;&gt;Project to QKV:&lt;/font&gt;&lt;/div&gt;&lt;font face=&quot;Times New Roman&quot;&gt;\(\mathbf{Q, K, V} \in \mathbb{R}^{P \times N, P \times N, d}\)&lt;/font&gt;" style="text;html=1;align=center;verticalAlign=middle;resizable=0;points=[];autosize=1;strokeColor=none;fillColor=none;fontSize=14;" parent="1" vertex="1">
          <mxGeometry x="2055" y="360" width="390" height="50" as="geometry" />
        </mxCell>
        <mxCell id="LosKKZpC7nMmyaD282La-95" style="edgeStyle=orthogonalEdgeStyle;rounded=0;orthogonalLoop=1;jettySize=auto;html=1;strokeWidth=1.5;" parent="1" source="LosKKZpC7nMmyaD282La-93" target="LosKKZpC7nMmyaD282La-69" edge="1">
          <mxGeometry relative="1" as="geometry" />
        </mxCell>
        <mxCell id="LosKKZpC7nMmyaD282La-93" value="&lt;font size=&quot;3&quot;&gt;&lt;b&gt;Out&lt;/b&gt;&lt;/font&gt;" style="rounded=1;whiteSpace=wrap;html=1;strokeWidth=3;fillColor=#bac8d3;direction=east;" parent="1" vertex="1">
          <mxGeometry x="2680" y="130" width="40" height="180" as="geometry" />
        </mxCell>
        <mxCell id="LosKKZpC7nMmyaD282La-96" value="" style="endArrow=classic;html=1;rounded=0;exitX=0.5;exitY=0;exitDx=0;exitDy=0;strokeWidth=1.5;entryX=0.5;entryY=0;entryDx=0;entryDy=0;edgeStyle=orthogonalEdgeStyle;" parent="1" source="zhG1U59wsn1K44dkHao6-26" target="LosKKZpC7nMmyaD282La-69" edge="1">
          <mxGeometry width="50" height="50" relative="1" as="geometry">
            <mxPoint x="1920" y="160" as="sourcePoint" />
            <mxPoint x="1990" y="160" as="targetPoint" />
            <Array as="points">
              <mxPoint x="2035" y="70" />
              <mxPoint x="2780" y="70" />
            </Array>
          </mxGeometry>
        </mxCell>
        <mxCell id="LosKKZpC7nMmyaD282La-101" value="" style="rounded=1;whiteSpace=wrap;html=1;strokeWidth=3;fillColor=#fee0e1;direction=east;" parent="1" vertex="1">
          <mxGeometry x="2850" y="180" width="110" height="40" as="geometry" />
        </mxCell>
        <mxCell id="LosKKZpC7nMmyaD282La-102" value="" style="rounded=1;whiteSpace=wrap;html=1;strokeWidth=3;fillColor=#fee0e1;direction=east;" parent="1" vertex="1">
          <mxGeometry x="2840" y="190" width="110" height="40" as="geometry" />
        </mxCell>
        <mxCell id="LosKKZpC7nMmyaD282La-103" value="&lt;font size=&quot;3&quot;&gt;&lt;b&gt;Coordinates&lt;/b&gt;&lt;/font&gt;" style="rounded=1;whiteSpace=wrap;html=1;strokeWidth=3;fillColor=#fee0e1;direction=east;" parent="1" vertex="1">
          <mxGeometry x="2830" y="200" width="110" height="40" as="geometry" />
        </mxCell>
        <mxCell id="LosKKZpC7nMmyaD282La-105" value="&lt;div&gt;&lt;font face=&quot;Times New Roman&quot;&gt;Predicted coordinates:&lt;/font&gt;&lt;/div&gt;&lt;div&gt;&lt;span style=&quot;background-color: transparent; color: light-dark(rgb(0, 0, 0), rgb(255, 255, 255)); font-family: &amp;quot;Times New Roman&amp;quot;;&quot;&gt;\(\{\mathcal{G}^{(t + \Delta t)}\} \in \mathbb{R}^{P, N, 3}\)&lt;/span&gt;&lt;br&gt;&lt;/div&gt;" style="text;html=1;align=center;verticalAlign=middle;resizable=0;points=[];autosize=1;strokeColor=none;fillColor=none;strokeWidth=1;fontSize=14;" parent="1" vertex="1">
          <mxGeometry x="2700" y="240" width="370" height="50" as="geometry" />
        </mxCell>
      </root>
    </mxGraphModel>
  </diagram>
  <diagram id="8e0Sr3R1HWzzhrAZ0TaT" name="Data Diagram">
    <mxGraphModel dx="3424" dy="747" grid="1" gridSize="10" guides="1" tooltips="1" connect="1" arrows="1" fold="1" page="1" pageScale="1" pageWidth="850" pageHeight="1100" math="1" shadow="0">
      <root>
        <mxCell id="0" />
        <mxCell id="1" parent="0" />
        <mxCell id="dQGd5gSt-ZxITeQwfpv--1" value="" style="rounded=1;whiteSpace=wrap;html=1;fontFamily=Times New Roman;fontSize=13;" parent="1" vertex="1">
          <mxGeometry y="200" width="3800" height="40" as="geometry" />
        </mxCell>
        <mxCell id="dQGd5gSt-ZxITeQwfpv--4" value="Trajectory" style="text;html=1;align=center;verticalAlign=middle;resizable=0;points=[];autosize=1;strokeColor=none;fillColor=none;fontFamily=Times New Roman;fontSize=13;" parent="1" vertex="1">
          <mxGeometry x="1210" y="130" width="80" height="30" as="geometry" />
        </mxCell>
        <mxCell id="dQGd5gSt-ZxITeQwfpv--7" style="edgeStyle=orthogonalEdgeStyle;rounded=0;orthogonalLoop=1;jettySize=auto;html=1;entryX=0;entryY=0.5;entryDx=0;entryDy=0;exitX=1;exitY=0.5;exitDx=0;exitDy=0;fontFamily=Times New Roman;fontSize=13;" parent="1" source="dQGd5gSt-ZxITeQwfpv--5" target="dQGd5gSt-ZxITeQwfpv--6" edge="1">
          <mxGeometry relative="1" as="geometry" />
        </mxCell>
        <mxCell id="dQGd5gSt-ZxITeQwfpv--9" value="\(\Delta T\) = 3000" style="edgeLabel;html=1;align=center;verticalAlign=middle;resizable=0;points=[];fontFamily=Times New Roman;fontSize=13;" parent="dQGd5gSt-ZxITeQwfpv--7" vertex="1" connectable="0">
          <mxGeometry x="-0.0085" relative="1" as="geometry">
            <mxPoint as="offset" />
          </mxGeometry>
        </mxCell>
        <mxCell id="dQGd5gSt-ZxITeQwfpv--5" value="Train \(\{\mathcal{G}^{(t)}\}^P\)" style="rounded=1;whiteSpace=wrap;html=1;fillColor=#f8cecc;strokeColor=#b85450;fontFamily=Times New Roman;fontSize=13;" parent="1" vertex="1">
          <mxGeometry y="200" width="50" height="40" as="geometry" />
        </mxCell>
        <mxCell id="dQGd5gSt-ZxITeQwfpv--14" style="edgeStyle=orthogonalEdgeStyle;rounded=0;orthogonalLoop=1;jettySize=auto;html=1;fontFamily=Times New Roman;fontSize=13;" parent="1" source="dQGd5gSt-ZxITeQwfpv--6" target="dQGd5gSt-ZxITeQwfpv--10" edge="1">
          <mxGeometry relative="1" as="geometry" />
        </mxCell>
        <mxCell id="dQGd5gSt-ZxITeQwfpv--6" value="Target \(\{\mathcal{G}^{(t + \Delta T)}\}^P\)" style="rounded=1;whiteSpace=wrap;html=1;fillColor=#f8cecc;strokeColor=#b85450;fontFamily=Times New Roman;fontSize=13;" parent="1" vertex="1">
          <mxGeometry x="350" y="200" width="50" height="40" as="geometry" />
        </mxCell>
        <mxCell id="dQGd5gSt-ZxITeQwfpv--13" style="edgeStyle=orthogonalEdgeStyle;rounded=0;orthogonalLoop=1;jettySize=auto;html=1;fontFamily=Times New Roman;fontSize=13;" parent="1" source="dQGd5gSt-ZxITeQwfpv--10" target="dQGd5gSt-ZxITeQwfpv--6" edge="1">
          <mxGeometry relative="1" as="geometry" />
        </mxCell>
        <mxCell id="dQGd5gSt-ZxITeQwfpv--16" value="Frame shift&lt;div&gt;10 000&lt;/div&gt;" style="edgeLabel;html=1;align=center;verticalAlign=middle;resizable=0;points=[];fontFamily=Times New Roman;fontSize=13;" parent="dQGd5gSt-ZxITeQwfpv--13" vertex="1" connectable="0">
          <mxGeometry x="0.0069" relative="1" as="geometry">
            <mxPoint as="offset" />
          </mxGeometry>
        </mxCell>
        <mxCell id="dQGd5gSt-ZxITeQwfpv--10" value="Validation&lt;div&gt;&amp;nbsp;\(\{\mathcal{G}^{(t)}\}^P\)&lt;/div&gt;" style="rounded=1;whiteSpace=wrap;html=1;fillColor=#fff2cc;strokeColor=#d6b656;fontFamily=Times New Roman;fontSize=13;" parent="1" vertex="1">
          <mxGeometry x="1400" y="200" width="200" height="40" as="geometry" />
        </mxCell>
        <mxCell id="dQGd5gSt-ZxITeQwfpv--11" value="Validation&lt;div&gt;&amp;nbsp;\(\{\mathcal{G}^{(t + \Delta T)}\}^P\)&lt;/div&gt;" style="rounded=1;whiteSpace=wrap;html=1;fillColor=#fff2cc;strokeColor=#d6b656;fontFamily=Times New Roman;fontSize=13;" parent="1" vertex="1">
          <mxGeometry x="1900" y="200" width="200" height="40" as="geometry" />
        </mxCell>
        <mxCell id="dQGd5gSt-ZxITeQwfpv--17" style="edgeStyle=orthogonalEdgeStyle;rounded=0;orthogonalLoop=1;jettySize=auto;html=1;entryX=0;entryY=0.5;entryDx=0;entryDy=0;exitX=1;exitY=0.5;exitDx=0;exitDy=0;fontFamily=Times New Roman;fontSize=13;" parent="1" source="dQGd5gSt-ZxITeQwfpv--10" target="dQGd5gSt-ZxITeQwfpv--11" edge="1">
          <mxGeometry relative="1" as="geometry">
            <mxPoint x="1110" y="310" as="sourcePoint" />
            <mxPoint x="1410" y="310" as="targetPoint" />
          </mxGeometry>
        </mxCell>
        <mxCell id="dQGd5gSt-ZxITeQwfpv--18" value="\(\Delta T\) = 3000" style="edgeLabel;html=1;align=center;verticalAlign=middle;resizable=0;points=[];fontFamily=Times New Roman;fontSize=13;" parent="dQGd5gSt-ZxITeQwfpv--17" vertex="1" connectable="0">
          <mxGeometry x="-0.0085" relative="1" as="geometry">
            <mxPoint as="offset" />
          </mxGeometry>
        </mxCell>
        <mxCell id="dQGd5gSt-ZxITeQwfpv--23" value="Test&lt;div&gt;&amp;nbsp;\(\{\mathcal{G}^{(t)}\}^P\)&lt;/div&gt;" style="rounded=1;whiteSpace=wrap;html=1;fillColor=#d5e8d4;strokeColor=#82b366;fontFamily=Times New Roman;fontSize=13;" parent="1" vertex="1">
          <mxGeometry x="3100" y="200" width="200" height="40" as="geometry" />
        </mxCell>
        <mxCell id="dQGd5gSt-ZxITeQwfpv--24" value="Test&lt;div&gt;&amp;nbsp;\(\{\mathcal{G}^{(t + \Delta T)}\}^P\)&lt;/div&gt;" style="rounded=1;whiteSpace=wrap;html=1;fillColor=#d5e8d4;strokeColor=#82b366;fontFamily=Times New Roman;fontSize=13;" parent="1" vertex="1">
          <mxGeometry x="3600" y="200" width="200" height="40" as="geometry" />
        </mxCell>
        <mxCell id="dQGd5gSt-ZxITeQwfpv--25" style="edgeStyle=orthogonalEdgeStyle;rounded=0;orthogonalLoop=1;jettySize=auto;html=1;exitX=1;exitY=0.5;exitDx=0;exitDy=0;fontFamily=Times New Roman;fontSize=13;" parent="1" source="dQGd5gSt-ZxITeQwfpv--23" target="dQGd5gSt-ZxITeQwfpv--24" edge="1">
          <mxGeometry relative="1" as="geometry">
            <mxPoint x="2260" y="310" as="sourcePoint" />
            <mxPoint x="2560" y="310" as="targetPoint" />
          </mxGeometry>
        </mxCell>
        <mxCell id="dQGd5gSt-ZxITeQwfpv--26" value="\(\Delta T\) = 3000" style="edgeLabel;html=1;align=center;verticalAlign=middle;resizable=0;points=[];fontFamily=Times New Roman;fontSize=13;" parent="dQGd5gSt-ZxITeQwfpv--25" vertex="1" connectable="0">
          <mxGeometry x="-0.0085" relative="1" as="geometry">
            <mxPoint as="offset" />
          </mxGeometry>
        </mxCell>
        <mxCell id="0YS4R5MTpTzLgTUssLxY-1" value="3k" style="rounded=0;whiteSpace=wrap;html=1;fontFamily=Times New Roman;fontSize=13;" parent="1" vertex="1">
          <mxGeometry x="50" y="250" width="300" height="10" as="geometry" />
        </mxCell>
        <mxCell id="0YS4R5MTpTzLgTUssLxY-2" value="10k" style="rounded=0;whiteSpace=wrap;html=1;fontFamily=Times New Roman;fontSize=13;" parent="1" vertex="1">
          <mxGeometry x="400" y="260" width="1000" height="10" as="geometry" />
        </mxCell>
        <mxCell id="0YS4R5MTpTzLgTUssLxY-4" value="3k" style="rounded=0;whiteSpace=wrap;html=1;fontFamily=Times New Roman;fontSize=13;" parent="1" vertex="1">
          <mxGeometry x="1600" y="250" width="300" height="10" as="geometry" />
        </mxCell>
        <mxCell id="0YS4R5MTpTzLgTUssLxY-6" value="10k" style="rounded=0;whiteSpace=wrap;html=1;fontFamily=Times New Roman;fontSize=13;" parent="1" vertex="1">
          <mxGeometry x="2100" y="260" width="1000" height="10" as="geometry" />
        </mxCell>
        <mxCell id="0YS4R5MTpTzLgTUssLxY-7" value="3k" style="rounded=0;whiteSpace=wrap;html=1;fontFamily=Times New Roman;fontSize=13;" parent="1" vertex="1">
          <mxGeometry x="3300" y="250" width="300" height="10" as="geometry" />
        </mxCell>
        <mxCell id="0YS4R5MTpTzLgTUssLxY-8" value="" style="rounded=1;whiteSpace=wrap;html=1;fontFamily=Times New Roman;fontSize=13;" parent="1" vertex="1">
          <mxGeometry y="440" width="1420" height="40" as="geometry" />
        </mxCell>
        <mxCell id="0YS4R5MTpTzLgTUssLxY-9" style="edgeStyle=orthogonalEdgeStyle;rounded=0;orthogonalLoop=1;jettySize=auto;html=1;entryX=0;entryY=0.5;entryDx=0;entryDy=0;exitX=1;exitY=0.5;exitDx=0;exitDy=0;fontFamily=Times New Roman;fontSize=13;" parent="1" source="0YS4R5MTpTzLgTUssLxY-11" target="0YS4R5MTpTzLgTUssLxY-13" edge="1">
          <mxGeometry relative="1" as="geometry" />
        </mxCell>
        <mxCell id="0YS4R5MTpTzLgTUssLxY-10" value="\(\Delta T\) = 3000" style="edgeLabel;html=1;align=center;verticalAlign=middle;resizable=0;points=[];fontFamily=Times New Roman;fontSize=13;" parent="0YS4R5MTpTzLgTUssLxY-9" vertex="1" connectable="0">
          <mxGeometry x="-0.0085" relative="1" as="geometry">
            <mxPoint as="offset" />
          </mxGeometry>
        </mxCell>
        <mxCell id="0YS4R5MTpTzLgTUssLxY-11" value="Train&lt;div&gt;&amp;nbsp;\(\{\mathcal{G}^{(t)}\}^P\)&lt;/div&gt;" style="rounded=1;whiteSpace=wrap;html=1;fillColor=#f8cecc;strokeColor=#b85450;fontFamily=Times New Roman;fontSize=13;" parent="1" vertex="1">
          <mxGeometry y="440" width="70" height="40" as="geometry" />
        </mxCell>
        <mxCell id="0YS4R5MTpTzLgTUssLxY-12" style="edgeStyle=orthogonalEdgeStyle;rounded=0;orthogonalLoop=1;jettySize=auto;html=1;fontFamily=Times New Roman;fontSize=13;" parent="1" source="0YS4R5MTpTzLgTUssLxY-13" target="0YS4R5MTpTzLgTUssLxY-16" edge="1">
          <mxGeometry relative="1" as="geometry" />
        </mxCell>
        <mxCell id="0YS4R5MTpTzLgTUssLxY-13" value="Train \(\{\mathcal{G}^{(t + \Delta T)}\}^P\)" style="rounded=1;whiteSpace=wrap;html=1;fillColor=#f8cecc;strokeColor=#b85450;fontFamily=Times New Roman;fontSize=13;" parent="1" vertex="1">
          <mxGeometry x="160" y="440" width="70" height="40" as="geometry" />
        </mxCell>
        <mxCell id="0YS4R5MTpTzLgTUssLxY-14" style="edgeStyle=orthogonalEdgeStyle;rounded=0;orthogonalLoop=1;jettySize=auto;html=1;fontFamily=Times New Roman;fontSize=13;" parent="1" source="0YS4R5MTpTzLgTUssLxY-16" target="0YS4R5MTpTzLgTUssLxY-13" edge="1">
          <mxGeometry relative="1" as="geometry" />
        </mxCell>
        <mxCell id="0YS4R5MTpTzLgTUssLxY-15" value="Frame shift&lt;div&gt;10 000&lt;/div&gt;" style="edgeLabel;html=1;align=center;verticalAlign=middle;resizable=0;points=[];fontFamily=Times New Roman;fontSize=13;" parent="0YS4R5MTpTzLgTUssLxY-14" vertex="1" connectable="0">
          <mxGeometry x="0.0069" relative="1" as="geometry">
            <mxPoint as="offset" />
          </mxGeometry>
        </mxCell>
        <mxCell id="0YS4R5MTpTzLgTUssLxY-16" value="Validation&lt;div&gt;&amp;nbsp;\(\{\mathcal{G}^{(t)}\}^P\)&lt;/div&gt;" style="rounded=1;whiteSpace=wrap;html=1;fillColor=#fff2cc;strokeColor=#d6b656;fontFamily=Times New Roman;fontSize=13;" parent="1" vertex="1">
          <mxGeometry x="530" y="440" width="100" height="40" as="geometry" />
        </mxCell>
        <mxCell id="0YS4R5MTpTzLgTUssLxY-52" style="edgeStyle=orthogonalEdgeStyle;rounded=0;orthogonalLoop=1;jettySize=auto;html=1;fontFamily=Times New Roman;fontSize=13;" parent="1" source="0YS4R5MTpTzLgTUssLxY-17" target="0YS4R5MTpTzLgTUssLxY-20" edge="1">
          <mxGeometry relative="1" as="geometry" />
        </mxCell>
        <mxCell id="0YS4R5MTpTzLgTUssLxY-17" value="Validation&lt;div&gt;&amp;nbsp;\(\{\mathcal{G}^{(t + \Delta T)}\}^P\)&lt;/div&gt;" style="rounded=1;whiteSpace=wrap;html=1;fillColor=#fff2cc;strokeColor=#d6b656;fontFamily=Times New Roman;fontSize=13;" parent="1" vertex="1">
          <mxGeometry x="720" y="440" width="100" height="40" as="geometry" />
        </mxCell>
        <mxCell id="0YS4R5MTpTzLgTUssLxY-18" style="edgeStyle=orthogonalEdgeStyle;rounded=0;orthogonalLoop=1;jettySize=auto;html=1;entryX=0;entryY=0.5;entryDx=0;entryDy=0;exitX=1;exitY=0.5;exitDx=0;exitDy=0;fontFamily=Times New Roman;fontSize=13;" parent="1" source="0YS4R5MTpTzLgTUssLxY-16" target="0YS4R5MTpTzLgTUssLxY-17" edge="1">
          <mxGeometry relative="1" as="geometry">
            <mxPoint x="1110" y="550" as="sourcePoint" />
            <mxPoint x="1410" y="550" as="targetPoint" />
          </mxGeometry>
        </mxCell>
        <mxCell id="0YS4R5MTpTzLgTUssLxY-19" value="\(\Delta T\) = 3000" style="edgeLabel;html=1;align=center;verticalAlign=middle;resizable=0;points=[];fontFamily=Times New Roman;fontSize=13;" parent="0YS4R5MTpTzLgTUssLxY-18" vertex="1" connectable="0">
          <mxGeometry x="-0.0085" relative="1" as="geometry">
            <mxPoint as="offset" />
          </mxGeometry>
        </mxCell>
        <mxCell id="0YS4R5MTpTzLgTUssLxY-20" value="Test&lt;div&gt;\(\{\mathcal{G}^{(t)}\}^P\)&lt;/div&gt;" style="rounded=1;whiteSpace=wrap;html=1;fillColor=#d5e8d4;strokeColor=#82b366;fontFamily=Times New Roman;fontSize=13;" parent="1" vertex="1">
          <mxGeometry x="1120" y="440" width="100" height="40" as="geometry" />
        </mxCell>
        <mxCell id="0YS4R5MTpTzLgTUssLxY-21" value="Test&lt;div&gt;&amp;nbsp;\(\{\mathcal{G}^{(t + \Delta T)}\}^P\)&lt;/div&gt;" style="rounded=1;whiteSpace=wrap;html=1;fillColor=#d5e8d4;strokeColor=#82b366;fontFamily=Times New Roman;fontSize=13;" parent="1" vertex="1">
          <mxGeometry x="1310" y="440" width="100" height="40" as="geometry" />
        </mxCell>
        <mxCell id="0YS4R5MTpTzLgTUssLxY-22" style="edgeStyle=orthogonalEdgeStyle;rounded=0;orthogonalLoop=1;jettySize=auto;html=1;exitX=1;exitY=0.5;exitDx=0;exitDy=0;fontFamily=Times New Roman;fontSize=13;" parent="1" source="0YS4R5MTpTzLgTUssLxY-20" target="0YS4R5MTpTzLgTUssLxY-21" edge="1">
          <mxGeometry relative="1" as="geometry">
            <mxPoint x="2260" y="550" as="sourcePoint" />
            <mxPoint x="2560" y="550" as="targetPoint" />
          </mxGeometry>
        </mxCell>
        <mxCell id="0YS4R5MTpTzLgTUssLxY-23" value="\(\Delta T\) = 3000" style="edgeLabel;html=1;align=center;verticalAlign=middle;resizable=0;points=[];fontFamily=Times New Roman;fontSize=13;" parent="0YS4R5MTpTzLgTUssLxY-22" vertex="1" connectable="0">
          <mxGeometry x="-0.0085" relative="1" as="geometry">
            <mxPoint as="offset" />
          </mxGeometry>
        </mxCell>
        <mxCell id="0YS4R5MTpTzLgTUssLxY-24" value="3k" style="rounded=0;whiteSpace=wrap;html=1;fontFamily=Times New Roman;fontSize=13;" parent="1" vertex="1">
          <mxGeometry x="70" y="490" width="90" height="10" as="geometry" />
        </mxCell>
        <mxCell id="0YS4R5MTpTzLgTUssLxY-40" value="3k" style="rounded=0;whiteSpace=wrap;html=1;fontFamily=Times New Roman;fontSize=13;" parent="1" vertex="1">
          <mxGeometry x="80" y="590" width="90" height="10" as="geometry" />
        </mxCell>
        <mxCell id="0YS4R5MTpTzLgTUssLxY-41" value="3k" style="rounded=0;whiteSpace=wrap;html=1;fontFamily=Times New Roman;fontSize=13;" parent="1" vertex="1">
          <mxGeometry x="170" y="590" width="90" height="10" as="geometry" />
        </mxCell>
        <mxCell id="0YS4R5MTpTzLgTUssLxY-42" value="3k" style="rounded=0;whiteSpace=wrap;html=1;fontFamily=Times New Roman;fontSize=13;" parent="1" vertex="1">
          <mxGeometry x="260" y="590" width="90" height="10" as="geometry" />
        </mxCell>
        <mxCell id="0YS4R5MTpTzLgTUssLxY-43" value="1k" style="rounded=0;whiteSpace=wrap;html=1;fontFamily=Times New Roman;fontSize=13;" parent="1" vertex="1">
          <mxGeometry x="350" y="590" width="30" height="10" as="geometry" />
        </mxCell>
        <mxCell id="0YS4R5MTpTzLgTUssLxY-44" value="10k" style="rounded=0;whiteSpace=wrap;html=1;fontFamily=Times New Roman;fontSize=13;" parent="1" vertex="1">
          <mxGeometry x="80" y="610" width="300" height="10" as="geometry" />
        </mxCell>
        <mxCell id="0YS4R5MTpTzLgTUssLxY-45" value="10k" style="rounded=0;whiteSpace=wrap;html=1;fontFamily=Times New Roman;fontSize=13;" parent="1" vertex="1">
          <mxGeometry x="230" y="500" width="300" height="10" as="geometry" />
        </mxCell>
        <mxCell id="0YS4R5MTpTzLgTUssLxY-47" value="3k" style="rounded=0;whiteSpace=wrap;html=1;fontFamily=Times New Roman;fontSize=13;" parent="1" vertex="1">
          <mxGeometry x="630" y="490" width="90" height="10" as="geometry" />
        </mxCell>
        <mxCell id="0YS4R5MTpTzLgTUssLxY-48" value="10k" style="rounded=0;whiteSpace=wrap;html=1;fontFamily=Times New Roman;fontSize=13;" parent="1" vertex="1">
          <mxGeometry x="820" y="500" width="300" height="10" as="geometry" />
        </mxCell>
        <mxCell id="0YS4R5MTpTzLgTUssLxY-49" value="3k" style="rounded=0;whiteSpace=wrap;html=1;fontFamily=Times New Roman;fontSize=13;" parent="1" vertex="1">
          <mxGeometry x="1220" y="490" width="90" height="10" as="geometry" />
        </mxCell>
        <mxCell id="0YS4R5MTpTzLgTUssLxY-50" style="edgeStyle=orthogonalEdgeStyle;rounded=0;orthogonalLoop=1;jettySize=auto;html=1;entryX=1;entryY=0.5;entryDx=0;entryDy=0;exitX=0;exitY=0.5;exitDx=0;exitDy=0;fontFamily=Times New Roman;fontSize=13;" parent="1" source="0YS4R5MTpTzLgTUssLxY-20" target="0YS4R5MTpTzLgTUssLxY-17" edge="1">
          <mxGeometry relative="1" as="geometry">
            <mxPoint x="540" y="470" as="sourcePoint" />
            <mxPoint x="240" y="470" as="targetPoint" />
          </mxGeometry>
        </mxCell>
        <mxCell id="0YS4R5MTpTzLgTUssLxY-51" value="Frame shift&lt;div&gt;10 000&lt;/div&gt;" style="edgeLabel;html=1;align=center;verticalAlign=middle;resizable=0;points=[];fontFamily=Times New Roman;fontSize=13;" parent="0YS4R5MTpTzLgTUssLxY-50" vertex="1" connectable="0">
          <mxGeometry x="0.0069" relative="1" as="geometry">
            <mxPoint as="offset" />
          </mxGeometry>
        </mxCell>
        <mxCell id="0YS4R5MTpTzLgTUssLxY-53" value="&lt;font style=&quot;font-size: 14px;&quot; face=&quot;Times New Roman&quot;&gt;&lt;b style=&quot;&quot;&gt;Whole Trajectory&lt;/b&gt;&lt;/font&gt;" style="text;html=1;align=center;verticalAlign=middle;whiteSpace=wrap;rounded=0;" parent="1" vertex="1">
          <mxGeometry x="612.5" y="410" width="125" height="30" as="geometry" />
        </mxCell>
        <mxCell id="0YS4R5MTpTzLgTUssLxY-55" value="\(\cdots\)" style="text;html=1;align=center;verticalAlign=middle;resizable=0;points=[];autosize=1;strokeColor=none;fillColor=none;" parent="1" vertex="1">
          <mxGeometry x="1400" y="445" width="70" height="30" as="geometry" />
        </mxCell>
      </root>
    </mxGraphModel>
  </diagram>
</mxfile>
